<?xml version="1.0" encoding="UTF-8"?>
<svg width="144px" height="80px" viewBox="0 0 144 80" version="1.1" xmlns="http://www.w3.org/2000/svg" xmlns:xlink="http://www.w3.org/1999/xlink">
    <!-- Generator: Sketch 39.1 (31720) - http://www.bohemiancoding.com/sketch -->
    <title>YL</title>
    <desc>Created with Sketch.</desc>
    <defs>
        <path d="M55.1089683,43.2638733 C53.9442173,45.1377932 53,48.4495751 53,50.6622888 L53,75.9946167 C53,78.2067288 54.7921947,80 57.0018785,80 L77.9981215,80 C80.208298,80 82,78.2169203 82,76.0054168 L82,3.99458325 C82,1.78843584 81.0516057,1.52583256 79.8910317,3.39303219 L55.1089683,43.2638733 Z M139.999788,-5.1615768e-15 C142.209044,-5.01842698e-15 144,1.79667664 144,3.99267864 L144,50.0073214 C144,52.2124169 142.207968,54 139.999788,54 L114.000212,54 C111.790956,54 110,52.2033234 110,50.0073214 L110,3.99267864 C110,1.78758312 111.792032,-6.98931179e-15 114.000212,-6.84623169e-15 L139.999788,-5.1615768e-15 Z M46.9937057,-5.64025976e-15 C49.206321,-5.46957942e-15 50.1030574,1.54418014 48.9925943,3.45595796 L40.8094795,17.544042 C39.70082,19.4527149 37.9812965,19.4043506 36.9696492,17.4376363 L29.8324246,3.56236374 C28.8204044,1.59492457 29.7856329,-6.96768428e-15 32.0062943,-6.79638327e-15 L46.9937057,-5.64025976e-15 Z M4.00281647,80 C1.79212198,80 0,78.2055764 0,75.9977223 L0,6.00227769 C0,3.79188076 0.875104452,3.55638103 1.96170807,5.48891521 L23.0382919,42.9738067 C24.1217134,44.9006813 25,48.2539749 25,50.4581744 L25,76.0045474 C25,78.211175 23.2020617,80 20.9971835,80 L4.00281647,80 Z" id="path-1"></path>
    </defs>
    <g id="Page-1" stroke="none" stroke-width="1" fill="none" fill-rule="evenodd">
        <g id="YL">
            <mask id="mask-2" fill="white">
                <use xlink:href="#path-1"></use>
            </mask>
            <use id="Combined-Shape" fill="#E43C20" xlink:href="#path-1"></use>
        </g>
    </g>
</svg>